/* XPM */
static char * xterm_48x48_xpm[] = {
"48 48 3 1",
" 	c none",
"x	c #000000",
"-	c #FFFFFF",
"                                                ",
"      xxxxxxxxxxxxxxxxxxxxxxxxxxxxxxxxxx        ",
"     x----------------------------------xx      ",
"     x---xxxxxxxxxxxxxxxxxxxxxxxxxxxx---x-x     ",
"     x--x----------------------------x--x--x    ",
"     x-x------------------------------x-x---x   ",
"     x-x-xxx----xxx-------------------x-x----x  ",
"     x-x--xx----xx--------------------x-x----x  ",
"     x-x---xx--xx---------------------x-x----x  ",
"     x-x---xx--xx---------------------x-x----x  ",
"     x-x----xxxx----------------------x-x----x  ",
"     x-x----xxxx----------------------x-x----x  ",
"     x-x-----xx-----------------------x-x----x  ",
"     x-x----xxxx----------------------x-x----x  ",
"     x-x----xxxx----------------------x-x----x  ",
"     x-x---xx--xx---------------------x-x----x  ",
"     x-x---xx--xx---------------------x-x----x  ",
"     x-x--xx----xx--------------------x-x----x  ",
"     x-x-xxx----xxx-------------------x-x----x  ",
"     x-x------------------------------x-x----x  ",
"     x-x------------------------------x-x----x  ",
"     x-x-xxxxxx-xxxxx--xxxx---xx---xx-x-x----x  ",
"     x-x---x----x------x---x--xx---xx-x-x----x  ",
"     x-x---x----x------x---x--x-x-x-x-x-x----x  ",
"     x-x---x----xxxx---xxxx---x-x-x-x-x-x----x  ",
"     x-x---x----x------x-x----x--x--x-x-x---x   ",
"     x-x---x----x------x--x---x--x--x-x-x---x   ",
"     x-x---x----xxxxx--x---x--x-----x-x-x--x    ",
"     x-x------------------------------x-x--x    ",
"     x-x------------------------------x-x-x     ",
"     x--x----------------------------x--x-x     ",
"     x---xxxxxxxxxxxxxxxxxxxxxxxxxxxx---xx      ",
"     x----------------------------------xx      ",
"      xxxxxxxxxxxxxxxxxxxxxxxxxxxxxxxxxx        ",
"                                                ",
"                                                ",
"      xxxxxxxxxxxxxxxxxxxxxxxxxxxxxxxxxxxx      ",
"     x----------------------------------xx      ",
"     x-x-x-x-x-x-x-x-x-x-x-x-x-x-x-x-x--xx      ",
"    x----------------------------------x-x      ",
"    x-x-x-x-x-x-x-x-x-x-x-x-x-x-x-x-x--x-x      ",
"   x----------------------------------x--x      ",
"   x-x-x-x-x-x-x-x-x-x-x-x-x-x-x-x-x--x--x      ",
"  x----------------------------------x--x       ",
"  x-xx-xxxxxxxxxxxxxxxxxxxxxxxxxx-xx-x-x        ",
" x----------------------------------x-x         ",
" xxxxxxxxxxxxxxxxxxxxxxxxxxxxxxxxxxxxx          ",
"                                                "};
